<svg xmlns="http://www.w3.org/2000/svg" width="360" height="240" viewBox="0 0 360 240">
  <defs>
    <linearGradient id="p" x1="0" y1="0" x2="1" y2="1">
      <stop offset="0" stop-color="hsl(266, 55%, 30%)"/>
      <stop offset="1" stop-color="hsl(306, 55%, 45%)"/>
    </linearGradient>
  </defs>
  <rect width="360" height="240" rx="18" fill="url(#p)"/>
  <circle cx="70" cy="70" r="42" fill="rgba(255,255,255,0.16)"/>
  <circle cx="300" cy="170" r="55" fill="rgba(255,255,255,0.10)"/>
  <path d="M176 196 C156 170 156 140 176 120 C196 140 196 170 176 196 Z" fill="rgba(255,255,255,0.22)"/>
  <path d="M176 120 C156 96 130 84 100 84 C124 108 140 136 146 162 C158 146 168 132 176 120 Z" fill="rgba(255,255,255,0.18)"/>
  <path d="M176 120 C196 96 222 84 252 84 C228 108 212 136 206 162 C194 146 184 132 176 120 Z" fill="rgba(255,255,255,0.18)"/>
  <text x="16" y="222" font-family="Arial, Helvetica, sans-serif" font-size="18" fill="rgba(255,255,255,0.88)">Plant 14</text>
</svg>
